<svg xmlns="http://www.w3.org/2000/svg" viewBox="0 0 400 250" xmlns:bx="https://boxy-svg.com">
  <defs>
    <bx:grid x="0" y="0" width="5" height="5"></bx:grid>
  </defs>
  <path style="stroke: rgba(0, 0, 0, 0); fill: rgb(163, 193, 69); stroke-width: 1px; transform-origin: 194.937px 155.733px 0px;" d="M 203.419 94.078 C 215.899 102.538 213.308 119.314 212.314 138.425 C 211.845 147.434 218.487 167.022 212.314 173.957 C 209.391 177.24 203.387 184.584 200.906 188.17 C 196.719 194.22 198.32 199.282 198.32 199.282 C 198.32 199.282 200.426 209.572 204.708 213.043 C 207.737 215.496 213.772 213.557 216.116 216.596 C 216.858 217.557 216.116 220.149 216.116 220.149 C 216.116 220.149 208.245 221.545 204.708 220.149 C 199.867 218.239 193.3 213.043 193.3 209.489 C 193.3 205.744 188.642 185.77 193.3 177.51 C 196.522 171.796 195.187 154.998 185.695 149.084 C 174.287 141.978 170.018 115.003 176.395 99.035 C 179.529 91.189 195.838 88.939 203.419 94.078 Z" transform="matrix(0.784493, -0.620138, 0.620138, 0.784493, 0, 0)"></path>
  <path style="fill: none; stroke: rgb(0, 0, 0);" d=""></path>
  <path style="fill: rgb(186, 218, 85); stroke: rgba(0, 0, 0, 0);" d="M 300.439 97.658 L 315.439 87.658 C 320.439 82.658 325.68 84.525 330.439 87.658 C 337.537 92.331 345.871 93.998 355.439 92.658 C 360.659 91.927 365.659 93.594 370.439 97.658 C 379.683 105.517 368.016 108.851 335.439 107.658 C 333.773 107.597 333.773 109.264 335.439 112.658 C 340.58 123.131 352.246 123.131 370.439 112.658 C 373.669 110.799 372.002 114.132 365.439 122.658 C 357.243 133.306 343.909 131.639 325.439 117.658 C 309.272 105.421 309.272 102.087 285.439 107.658 C 272.355 110.716 273.582 110.257 260 110 C 250.731 109.824 256.089 116.955 240 125 C 230 130 220 140 160 155 C 141.922 159.52 125.917 109.024 175 95 C 210 85 238.635 90 245 90 C 285 90 265 100 300.439 97.658 Z"></path>
  <ellipse style="stroke: rgb(0, 0, 0);" cx="325" cy="95" rx="5" ry="5"></ellipse>
  <path style="fill: rgb(186, 218, 85); stroke: rgba(0, 0, 0, 0);" d="M 143.137 125 C 143.137 125 130 115 100 110 C 74.852 105.809 25 95 25 95 C 25 95 67.968 88.799 95 95 C 116.797 100 155 100 175 95 C 182.23 93.192 160.27 101.337 155 106.607 C 145 116.607 143.137 125 143.137 125 Z"></path>
  <path style="stroke: rgba(0, 0, 0, 0); fill: rgb(163, 193, 69); transform-origin: 150.287px 159.464px 0px;" d="M 158.769 97.809 C 171.249 106.269 168.658 123.045 167.664 142.156 C 167.195 151.165 168.394 166.528 162.221 173.463 C 159.298 176.746 149.846 181.962 147.365 185.548 C 143.178 191.598 137.727 196.518 137.726 199.201 C 137.725 203.362 141.557 204.766 145.537 209.984 C 149.134 214.701 143.072 216.355 143.072 216.355 C 143.072 216.355 133.045 210.543 130.773 205.591 C 129.369 202.532 129.521 198.854 130.686 195.495 C 132.024 191.637 138.549 185.276 143.207 177.016 C 146.429 171.302 150.537 158.729 141.045 152.815 C 129.637 145.709 125.368 118.734 131.745 102.766 C 134.879 94.92 151.188 92.67 158.769 97.809 Z" transform="matrix(0.909036, 0.416718, -0.416718, 0.909036, 0.000001, 0.000002)"></path>
  <path style="stroke: rgba(0, 0, 0, 0); fill: rgb(163, 193, 69);" d="M 227.912 109.514 C 227.912 109.514 214.694 118.671 213.798 127.453 C 213.251 132.813 213.379 135.153 215.077 135.68 C 225.162 138.808 257.987 120.135 247.764 125.261 C 239.652 129.329 238.428 140.539 240.547 141.976 C 241.608 142.695 253.336 133.904 254.029 127.296 C 254.295 124.758 252.486 121.695 250.134 120.705 C 241.228 116.955 233.652 121.121 224.774 125.008 C 217.092 128.371 231.095 126.87 239.648 115.312 C 241.328 113.042 242.26 109.369 240.847 106.924 C 240.04 105.527 237.954 104.924 236.353 105.126 C 233.162 105.528 227.912 109.514 227.912 109.514 Z"></path>
  <path style="fill: rgb(218, 103, 85); stroke: rgb(218, 103, 85); stroke-width: 1px; transform-origin: 204.734px 80.252px 0px;" d="M 181.206 80.166 C 178.722 72.256 187.684 62.76 187.684 62.76 L 188.84 57.751 L 193.18 59.543 L 194.23 54.904 L 198.582 56.195 L 200.248 51.626 L 203.869 54.286 L 206.998 50.739 L 209.942 54.129 L 213.28 51.227 L 216.141 54.931 L 219.47 53.425 C 219.47 53.425 222.806 60.984 222.925 65.035 C 223.047 69.211 222.214 82.988 218.708 87.267 C 213.701 93.378 183.25 86.676 181.206 80.166 Z" transform="matrix(0.984661, -0.174476, 0.174476, 0.984661, 0, 0)"></path>
  <path style="stroke: rgba(218, 103, 85, 0); fill: rgb(218, 103, 85); stroke-width: 1px; transform-origin: 204.734px 80.252px 0px;" d="M 219.384 62.48 C 219.384 62.48 221.084 62.748 221.907 62.565 C 223.119 62.296 225.503 61.807 227.611 58.209 C 230.528 53.231 227.435 47.813 227.435 47.813 C 227.435 47.813 225.832 51.291 223.742 54.646 C 221.818 57.736 219.771 58.673 219.771 58.673 L 215.214 64.341 L 219.384 62.48 Z" transform="matrix(-0.02827, 0.9996, -0.9996, -0.02827, 0, 0)"></path>
  <ellipse style="stroke: rgb(0, 0, 0); stroke-width: 1px; transform-origin: 776.698px 185.704px 0px;" cx="790.574" cy="183.392" rx="4.448" ry="4.651" transform="matrix(0.984661, -0.174476, 0.174476, 0.984661, -572.287481, -107.072462)"></ellipse>
  <ellipse style="stroke: rgb(0, 0, 0); fill: rgb(255, 255, 255); stroke-width: 1px; transform-origin: 777.026px 184.766px 0px;" cx="791.635" cy="180.475" rx="1.6" ry="1.854" transform="matrix(0.984661, -0.174476, 0.174476, 0.984661, -572.615048, -106.13466)"></ellipse>
  <path style="fill: rgb(218, 103, 85); stroke: rgba(0, 0, 0, 0); stroke-width: 1px; transform-origin: 204.734px 80.252px 0px;" d="M 189.029 83.653 C 184.46 86.261 181.671 88.487 180.983 89.946 C 180.457 91.062 184.952 103.818 184.952 103.818 L 187.242 92.407 L 196.2 88.283 C 196.2 88.283 191.493 82.247 189.029 83.653 Z" transform="matrix(0.987749, -0.156052, 0.156052, 0.987749, 0, 0)"></path>
  <path style="fill: rgb(218, 103, 85); stroke: rgba(0, 0, 0, 0); stroke-width: 1px; transform-origin: 204.734px 80.252px 0px;" d="M 222.66 47.128 C 222.66 47.128 221.342 50.889 221.037 52.852 C 220.689 55.092 220.816 59.654 220.816 59.654 C 220.816 59.654 219.359 67.752 217.209 71.14 C 216.194 72.74 213.027 74.99 213.027 74.99 L 208.976 69.088 C 208.976 69.088 212.2 69.871 213.572 68.67 C 214.944 67.469 217.208 61.884 217.208 61.884 C 217.208 61.884 214.405 58.602 215.561 53.262 C 216.89 47.126 222.66 47.128 222.66 47.128 Z" transform="matrix(0.022023, 0.999757, -0.999757, 0.022023, 0, 0)"></path>
  <path style="fill: rgb(218, 103, 85); stroke: rgba(0, 0, 0, 0); stroke-width: 1px; transform-origin: 204.734px 80.252px 0px;" d="M 207.289 75.172 C 202.72 72.564 199.931 70.338 199.243 68.879 C 198.717 67.763 203.212 55.007 203.212 55.007 L 205.502 66.418 L 214.46 70.542 C 214.46 70.542 209.753 76.578 207.289 75.172 Z" transform="matrix(-0.995649, -0.093186, 0.093186, -0.995649, 0, 0)"></path>
</svg>